<svg width="60" height="59" viewBox="0 0 60 59" fill="none" xmlns="http://www.w3.org/2000/svg">
<path d="M6.5 25V21.5C6.5 10.4543 15.4543 1.5 26.5 1.5H33.5C44.5457 1.5 53.5 10.4543 53.5 21.5V25" stroke="white" stroke-width="3"/>
<path d="M7.48452 24.009L3.48452 26.3424C2.25564 27.0592 1.5 28.3748 1.5 29.7975V38C1.5 39.7778 2.67333 41.3422 4.38 41.84L8.38 43.0067C10.94 43.7533 13.5 41.8333 13.5 39.1667V27.4641C13.5 24.377 10.1511 22.4535 7.48452 24.009Z" stroke="white" stroke-width="3"/>
<path d="M52.5155 24.009L56.5155 26.3424C57.7444 27.0592 58.5 28.3748 58.5 29.7975V38C58.5 39.7778 57.3267 41.3422 55.62 41.84L51.62 43.0067C49.06 43.7533 46.5 41.8333 46.5 39.1667V27.4641C46.5 24.377 49.8489 22.4535 52.5155 24.009Z" stroke="white" stroke-width="3"/>
<path d="M52.5 43.5C52.5 45.3301 52.5 47.9921 50.5 49.4895C47.8333 51.486 41.1667 52.6507 39.5 52.4843" stroke="white" stroke-width="3"/>
<ellipse cx="36.5" cy="52" rx="4" ry="3.5" fill="white"/>
<path d="M26.5 57.5C25.5 56.9872 23.5 55.1 23.5 51.6538C23.5 48.2077 25.5 46.1154 26.5 45.5" stroke="#4197B4" stroke-width="3" stroke-linecap="round"/>
<path d="M29.5 54.5C29 54.2436 28 53.3 28 51.5769C28 49.8538 29 48.8077 29.5 48.5" stroke="#4197B4" stroke-width="3" stroke-linecap="round"/>
</svg>
